#!OML:ASF E:/inclinewalkrobotboard/Project1/Captureday1/Session1/subject1.ASF
:FULLY-SPECIFIED
:DEGREES
63
root 0 0 0 -0.4016750665753379 -2.0127513614826134 -3.8723895927470684
lowerback 16.27179444470064 1.158921903440838 -0.07060915137285995
upperback 0.7907139594678102 1.5281792837672052 0.34575795351737315
thorax -8.354504568662394 0.7265086030341885 0.0413239081218284
lowerneck -7.454034603158697 -3.3115113238691087 1.1368067894709188
upperneck -4.533286721455362 -4.337196816397337 1.914815178010943
head -0.25002568626490973 -2.2203285885581385 0.2998580385937528
rclavicle -3.7034221027576814E-16 1.1812287348893517E-17
rhumerus 11.884669750207756 0.41533336743896676 -39.63795847235594
rradius 118.34462663010447
rwrist -30.619621909095418
rhand -11.704427671700348 -36.31813510276916
rfingers 7.125019999999962
rthumb 14.380654517274607 -65.74025833931418
lclavicle -4.450460177987719E-16 -4.874734503798383E-16
lhumerus -43.01532244032164 -0.4032952477146151 83.10215778814059
lradius 44.82296064747188
lwrist 2.1163370241597246
lhand -15.951049461877407 -11.054159109904768
lfingers 7.125019999999925
lthumb 10.2097176339028 18.04097030855045
rfemur -2.895491458303412 1.0786366298452625 5.792200382605751
rtibia 8.666887658026196
rfoot -1.6335212797301844 -1.4144696390963296
rtoes 0.8312826481281059
lfemur -6.557797336788384 -3.5397254360586223 -12.329381229097237
ltibia 27.494477473806054
lfoot -19.095222435900553 7.821239343454835
ltoes -42.80727883568909
64
root 0 0 0 -0.40093528429821745 -2.013794533121844 -3.8709458937868417
lowerback 16.28080815917792 1.153310551758433 -0.07462592008022662
upperback 0.786241100992404 1.5200808619337287 0.3461047049249296
thorax -8.364685274978418 0.7225536997417117 0.0446243526986605
lowerneck -7.453590348201721 -3.3060696480095353 1.1471612984140465
upperneck -4.594915047042843 -4.327156683946057 1.9014418461912213
head -0.270338128545065 -2.2170328879230183 0.29541275140886136
rclavicle -3.719089574179873E-16 1.21774088353198E-17
rhumerus 11.88004750099288 0.42272986492846343 -39.63855155248794
rradius 118.35181311701663
rwrist -30.622586751329663
rhand -11.700437431614995 -36.335896044528354
rfingers 7.125019999999962
rthumb 14.38414521821795 -65.75777796109924
lclavicle -4.421895423394372E-16 -4.874135549549371E-16
lhumerus -43.02820760233493 -0.40314376673319485 83.1029319310796
lradius 44.84127948545372
lwrist 2.111474410449867
lhand -15.937860000714597 -11.095038631018541
lfingers 7.125019999999925
lthumb 10.222137639416369 18.00128541020905
rfemur -2.893289503483592 1.077432477828139 5.786464176384481
rtibia 8.659959809074351
rfoot -1.6322219538608422 -1.4133670362631783
rtoes 0.8300073507392298
lfemur -6.555842827541323 -3.5409085850038613 -12.325943705222528
ltibia 27.490721935428372
lfoot -19.101458752734864 7.826390568503928
ltoes -42.82494191330083
65
root 0 0 0 -0.400298972547086 -2.014501622424978 -3.870616214665394
lowerback 16.28998320799236 1.150119856288114 -0.07717380469888346
upperback 0.7826636553677777 1.5153930747561484 0.3458200171847031
thorax -8.373602319452 0.7202447851982456 0.04600922744836533
lowerneck -7.452856596883756 -3.303216775393903 1.1544683433279728
upperneck -4.6470856148018385 -4.3215262991394905 1.8930373023683327
head -0.2878291619118789 -2.215389681626605 0.2925840699026374
rclavicle -3.7185022298100994E-16 1.2390861859040933E-17
rhumerus 11.886906362581712 0.42832877771030375 -39.63137216215802
rradius 118.36996337318944
rwrist -30.630470988176242
rhand -11.698407372190081 -36.35032248265913
rfingers 7.125019999999963
rthumb 14.38605042061149 -65.77171051817346
lclavicle -4.414494478713544E-16 -4.868246189120678E-16
lhumerus -43.03755437658038 -0.4033145130048198 83.10405632218284
lradius 44.85517200478917
lwrist 2.107377907544458
lhand -15.927448695422257 -11.127721148423024
lfingers 7.125019999999925
lthumb 10.231850205737402 17.969965201070746
rfemur -2.8924582238207295 1.0771689795484052 5.78495630600254
rtibia 8.65734436755016
rfoot -1.6318716892819003 -1.412983422478236
rtoes 0.8297925225309732
lfemur -6.554121451781169 -3.5420882121597184 -12.32218765699626
ltibia 27.487232735628204
lfoot -19.108399490516252 7.832460695377835
ltoes -42.84509569819108
66
root 0 0 0 -0.3993227029128288 -2.014945629526392 -3.8710849118551884
lowerback 16.297422427791478 1.148233121960491 -0.07877565092479544
upperback 0.7797348302047944 1.5125546702012138 0.3452480836190368
thorax -8.380815700151224 0.7188461629739813 0.04639778061002575
lowerneck -7.450866320860224 -3.301411033176745 1.1602235577858129
upperneck -4.689680267069509 -4.317960329426989 1.8876313751745375
head -0.3024324648639709 -2.214429444567476 0.2907250438830759
rclavicle -3.7191171220496967E-16 1.2790062340605768E-17
rhumerus 11.898317393138583 0.43687993485793974 -39.61967932011673
rradius 118.39844105276742
rwrist -30.643287092693466
rhand -11.695425073586481 -36.37200365847235
rfingers 7.125019999999963
rthumb 14.388863563908044 -65.79282546609033
lclavicle -4.4057818724876785E-16 -4.859673024658905E-16
lhumerus -43.04874161765598 -0.4031917079411662 83.10575269710161
lradius 44.871263143847045
lwrist 2.1017575216329725
lhand -15.914773404433143 -11.167697190374694
lfingers 7.1250199999999255
lthumb 10.243815848728595 17.931633559018003
rfemur -2.888816794208191 1.075837141140347 5.777716609741798
rtibia 8.646169804410025
rfoot -1.62994129840951 -1.4111717931113597
rtoes 0.8286585550194612
lfemur -6.551996071772459 -3.543613860133667 -12.317430529781412
ltibia 27.482840269498844
lfoot -19.11702249606271 7.839974107480391
ltoes -42.870187621915306
67
root 0 0 0 -0.40100872971256973 -2.0149664041834563 -3.8710204869490874
lowerback 16.30638199354973 1.1492544752515816 -0.07914802223602224
upperback 0.7780284716253696 1.5139794371532505 0.3443148536047912
thorax -8.387058160456503 0.7194267878307806 0.045192616674789354
lowerneck -7.456333978884297 -3.3042037187162308 1.1591508612830772
upperneck -4.716231935113534 -4.321262270248801 1.8880613694921748
head -0.3100521509656273 -2.216218072125382 0.29086465956014784
rclavicle -3.714471545377863E-16 1.2085766242518382E-17
rhumerus 11.90287505280866 0.4166046428843959 -39.62275735718663
rradius 118.37272725899406
rwrist -30.630295937803584
rhand -11.704744013688897 -36.32771428219465
rfingers 7.125019999999962
rthumb 14.380343563256137 -65.7497001328652
lclavicle -4.4146993362766953E-16 -4.851939659928061E-16
lhumerus -43.04971202878776 -0.40254767378291345 83.1066738416959
lradius 44.87129036678538
lwrist 2.099466486729157
lhand -15.912913164594098 -11.173911154036105
lfingers 7.1250199999999255
lthumb 10.245670068728856 17.925524653899792
rfemur -2.880307442679954 1.072776451520677 5.761362999083138
rtibia 8.62186263518733
rfoot -1.6244635260273328 -1.4067572488920557
rtoes 0.8268304567630951
lfemur -6.55369707942451 -3.5424720395749243 -12.32095609415805
ltibia 27.486765802788554
lfoot -19.110649287214326 7.8346015444
ltoes -42.85227854976755
68
root 0 0 0 -0.4003094785187613 -2.0158737822968673 -3.8701368122249997
lowerback 16.31434334150565 1.1447983030028763 -0.08231077841322054
upperback 0.7741258214712823 1.5075498898980093 0.34446297399878334
thorax -8.395982402347663 0.7162764940058846 0.04761876581018576
lowerneck -7.4557740227374305 -3.299864457453741 1.167850099123294
upperneck -4.769853215471997 -4.3132116331267945 1.8771805417576173
head -0.32780065900965294 -2.2136238926418894 0.28723611087984546
rclavicle -3.7307175593913905E-16 1.2511405065591638E-17
rhumerus 11.902312102758849 0.42480384761964274 -39.619893351641096
rradius 118.38636206972154
rwrist -30.63619192687171
rhand -11.700712732507826 -36.347783825541214
rfingers 7.125019999999963
rthumb 14.383875462593133 -65.76946172684637
lclavicle -4.3881787416699945E-16 -4.851835671919914E-16
lhumerus -43.06111869349264 -0.40238268837882163 83.1073882148028
lradius 44.88750672302875
lwrist 2.0951676938604846
lhand -15.901262218388148 -11.209988421334335
lfingers 7.1250199999999255
lthumb 10.256659750923749 17.890558655940666
rfemur -2.8806294311466827 1.072611531757782 5.761000601150739
rtibia 8.622565175028903
rfoot -1.6248005911298145 -1.4069666961439742
rtoes 0.8263764698108822
lfemur -6.552353557375411 -3.5432885959971303 -12.318381384284178
ltibia 27.484098269719855
lfoot -19.11516957391293 7.838306605504997
ltoes -42.865232448034256
69
root 0 0 0 -0.39960203682200546 -2.0163734506100868 -3.870536650537508
lowerback 16.321226232493128 1.1430787037180683 -0.08371463608728169
upperback 0.7712974317142882 1.504985855010508 0.3439671932610827
thorax -8.402758212340363 0.7149982983106303 0.0479352979327633
lowerneck -7.454657708168457 -3.298276925882694 1.1729888262478583
upperneck -4.80904031453716 -4.3100147184155695 1.8721155735870596
head -0.34114227933536956 -2.2127811994955984 0.2855000653351632
rclavicle -3.7304931581217E-16 1.2786879012681685E-17
rhumerus 11.912500881365666 0.4312863561287088 -39.609819115279606
rradius 118.41011030253767
rwrist -30.64666781076678
rhand -11.698560346483355 -36.364544166123935
rfingers 7.125019999999963
rthumb 14.385899129215495 -65.78565005972007
lclavicle -4.382092085089087E-16 -4.84625710084879E-16
lhumerus -43.06906521374744 -0.40245722392631933 83.10848235017374
lradius 44.899261480213035
lwrist 2.091496215445478
lhand -15.892297584261366 -11.238134952298143
lfingers 7.1250199999999255
lthumb 10.265038657946643 17.863669135048863
rfemur -2.881751043564827 1.0731518205303696 5.763647513504555
rtibia 8.625829263274822
rfoot -1.6257334148905498 -1.4076025420184077
rtoes 0.8267817652813703
lfemur -6.550878465023072 -3.544360568152011 -12.314804614538085
ltibia 27.480921342108147
lfoot -19.12170104795715 7.844058093294821
ltoes -42.88432201401078
70
root 0 0 0 -0.39849902464874953 -2.016593627747093 -3.8716817349803603
lowerback 16.325750381613123 1.142595832256987 -0.08417764976434228
upperback 0.7691693505450647 1.5041759848677396 0.3432454986238137
thorax -8.407442429457236 0.7145902255296366 0.04735888789791498
lowerneck -7.452175577751506 -3.2975899374301143 1.1765646526690725
upperneck -4.836731089957283 -4.308713544153868 1.8700341122665773
head -0.3509702772777752 -2.212520940712845 0.2847301517393331
rclavicle -3.731079235901668E-16 1.3229018018860194E-17
rhumerus 11.925797404365824 0.44057506504322497 -39.596428739884516
rradius 118.44206306332755
rwrist -30.6611498577926
rhand -11.695418264648328 -36.38797927754769
rfingers 7.125019999999963
rthumb 14.388865768373186 -65.80845115609532
lclavicle -4.374309409039065E-16 -4.838004411781678E-16
lhumerus -43.07893057770363 -0.402212428548537 83.11013993152598
lradius 44.91326894552681
lwrist 2.086253780969232
lhand -15.881001968421174 -11.273776005314982
lfingers 7.125019999999926
lthumb 10.27573574843593 17.82954399642689
rfemur -2.8794001287422732 1.072345519431824 5.759130752346822
rtibia 8.618504764887884
rfoot -1.62465463459325 -1.4064657607947848
rtoes 0.8260378927175012
lfemur -6.548715521351023 -3.5459636585749834 -12.309769601556614
ltibia 27.47627846318695
lfoot -19.13081120928276 7.852015927930809
ltoes -42.91081297696417
